Motion_pl02
version=1
nRows=9
nColumns=43
inDegrees=yes
endheader
time	pelvis_tilt	pelvis_list	pelvis_rotation	pelvis_tx	pelvis_ty	pelvis_tz	hip_flexion_r	hip_adduction_r	hip_rotation_r	knee_angle_r	ankle_angle_r	subtalar_angle_r	mtp_angle_r	hip_flexion_l	hip_adduction_l	hip_rotation_l	knee_angle_l	ankle_angle_l	subtalar_angle_l	mtp_angle_l	lumbar_extension	lumbar_bending	lumbar_rotation	neck_flexion	neck_lateral_bending	neck_rotation	arm_flex_r	arm_add_r	arm_rot_r	elbow_flex_r	pro_sup_r	wrist_flex_r	wrist_dev_r	hand_finger_flex_r	arm_flex_l	arm_add_l	arm_rot_l	elbow_flex_l	pro_sup_l	wrist_flex_l	wrist_dev_l	hand_finger_flex_l
      3.35250000	      3.21713618	    -18.42045786	     90.78034008	     -0.02111775	      1.65470913	      1.13042838	     70.84222948	     -3.63783374	     -9.24195155	    -92.21023316	     -5.42209468	      5.22019648	     31.55812036	     58.84415638	    -10.50376236	      1.16367049	    -89.65266788	      0.95006633	     -1.96772057	     21.42082619	    -33.21681407	      1.71105951	      4.72433524	      8.33291165	      4.22836851	     -2.08578195	     56.51230149	    -16.70528789	      5.99227234	     54.93679091	    114.27669330	      2.67251894	     -6.00862906	    -42.44511863	     59.99330046	    -26.34715034	     12.05240694	     62.20342027	    125.23888870	     -5.38174024	      2.92105681	    -24.79782148
      3.35500000	      3.20013252	    -18.29068266	     90.81275423	     -0.02167452	      1.65219723	      1.12587539	     70.67200105	     -3.65947473	     -9.27258163	    -91.38932567	     -5.37141354	      5.26615215	     31.55292859	     58.87356763	    -10.39727751	      1.07690099	    -88.94554258	      0.87156115	     -1.92435756	     21.37955015	    -33.26684011	      1.78757714	      4.74046982	      8.49649700	      4.21216015	     -2.07834163	     55.48141100	    -17.06468133	      5.84581372	     54.37467597	    114.34527372	      2.70579982	     -5.84687104	    -42.43653286	     59.06466520	    -26.74628855	     12.10117744	     61.80350110	    125.26323827	     -5.22814625	      3.05478338	    -24.76578955
      3.35750000	      3.63740225	    -18.04732061	     91.22056093	     -0.02205413	      1.65051052	      1.12120510	     70.14629413	     -3.64411439	     -9.89450151	    -90.33236646	     -5.28871052	      5.63603256	     31.41575145	     58.84311432	    -10.55106770	      1.28202478	    -87.99268541	      0.28970781	     -1.93280201	     20.59504553	    -33.71444435	      2.37939997	      4.67582340	      9.20185042	      3.97758556	     -2.00416031	     54.22364073	    -16.42955388	      3.52443994	     54.18776434	    116.00484092	      2.90310755	     -5.74410191	    -42.18942766	     57.51051077	    -27.27414976	     10.83225376	     62.78156881	    125.81651935	     -3.65024562	      3.65997174	    -24.71045064
      3.36000000	      3.59871564	    -17.91244871	     91.22821332	     -0.02239120	      1.64783963	      1.11663517	     69.93923545	     -3.65872004	     -9.93641087	    -89.50970692	     -5.37017228	      5.70027052	     31.41036509	     58.83657225	    -10.42409396	      1.22356675	    -87.28896261	      0.21559183	     -1.88974258	     20.55967317	    -33.75745512	      2.39115469	      4.70341852	      9.19983143	      3.97608347	     -2.01035504	     53.12182018	    -16.83668930	      3.43504406	     53.67421802	    116.05132285	      2.93367591	     -5.60630859	    -42.18423021	     56.56522595	    -27.70739426	     10.93264673	     62.42530196	    125.85366157	     -3.53387018	      3.74036438	    -24.69314831
      3.36250000	      3.59624876	    -17.82178425	     91.25448880	     -0.02288851	      1.64535149	      1.11214128	     69.72163158	     -3.69616804	    -10.02398479	    -88.59960745	     -5.52347471	      5.79746100	     31.40442470	     58.79617279	    -10.35649846	      1.08411289	    -86.39449818	      0.08035663	     -1.84002600	     20.51559888	    -33.81103366	      2.45879367	      4.78508345	      9.13639192	      3.97991888	     -2.02541861	     52.02509097	    -17.23206846	      3.18683384	     53.16297429	    116.07172423	      2.89214660	     -5.46786008	    -42.20235367	     55.56994350	    -28.14562050	     11.05615246	     62.20613784	    125.89467321	     -3.41759141	      3.78287848	    -24.67312223
      3.36500000	      3.80779715	    -17.62642032	     91.26852121	     -0.02279732	      1.64317067	      1.10768876	     69.23052702	     -3.49248688	    -10.37531581	    -87.52341184	     -6.54834000	      6.18515649	     31.36918048	     58.68456973	    -10.63101616	      0.94996474	    -85.42141421	     -0.50008280	     -1.87959827	     20.30194791	    -34.10522512	      2.58004810	      4.98230778	      8.61556696	      4.05079388	     -2.18052959	     50.66033972	    -17.08330910	      1.72211702	     53.00608338	    116.10152079	      2.34882924	     -5.48425328	    -42.35833360	     54.30786864	    -28.92939270	     10.99431191	     62.79704885	    126.11149326	     -3.21991928	      3.65391421	    -24.70440500
      3.36750000	      3.80444926	    -17.53454981	     91.23352886	     -0.02327018	      1.64046259	      1.10324463	     69.02738512	     -3.49774866	    -10.40651019	    -86.59800587	     -6.57206896	      6.21113776	     31.36374711	     58.69521708	    -10.56350033	      0.87074174	    -84.69116001	     -0.60642925	     -1.86665909	     20.26258411	    -34.14639754	      2.63498245	      5.09065730	      8.74662175	      4.05017940	     -2.18004006	     49.62239562	    -17.39642929	      1.49012326	     52.40027584	    116.12068148	      2.31865437	     -5.32692521	    -42.36368161	     53.35303014	    -29.31366377	     11.11362036	     62.43804896	    126.15570751	     -3.09090796	      3.74354950	    -24.67445120
      3.37000000	      4.15376064	    -17.39986430	     91.13018315	     -0.02273544	      1.63820294	      1.09879426	     68.55773041	     -3.03148507	    -10.76586610	    -85.38611598	     -7.61348799	      6.42194855	     31.32388245	     58.61834248	    -11.09435925	      0.74395709	    -83.69412272	     -1.26205459	     -2.10396194	     20.00236390	    -34.39638765	      2.78884600	      5.49197602	      8.71073017	      4.10636649	     -2.29522812	     48.39648888	    -17.02595084	     -0.24113987	     51.92998597	    116.17736169	      1.69505105	     -5.34975033	    -42.48502395	     52.11419816	    -30.06542343	     11.06089400	     62.96652941	    126.50011753	     -2.82551452	      3.70195374	    -24.67479155
      3.37250000	      4.15079860	    -17.31659568	     91.08231557	     -0.02312375	      1.63536479	      1.09431119	     68.33700215	     -3.03615931	    -10.78649281	    -84.40968135	     -7.63562935	      6.44438530	     31.31906282	     58.62255404	    -11.01695680	      0.68432641	    -82.96037330	     -1.36248735	     -2.09992508	     19.96308676	    -34.42230600	      2.81611529	      5.60134891	      8.82441694	      4.09801006	     -2.28901336	     47.33407397	    -17.35096101	     -0.45535374	     51.31825979	    116.20312483	      1.67536692	     -5.20031950	    -42.48205995	     51.15588291	    -30.43766574	     11.19498977	     62.63088418	    126.55636605	     -2.69539355	      3.78748350	    -24.64136157
